{"title":"Magic.Magic.2013.480p.DVDRip.X264-Fastbet99","uid":8753131,"size":853971290,"categoryP":"video","categoryS":"movies","magnet":"?xt=urn:btih:ba3d19c48e67f815dd18d438da8ebb0c9399c05d&amp;dn=Magic.Magic.2013.480p.DVDRip.X264-Fastbet99&amp;tr=udp%3A%2F%2Ftracker.openbittorrent.com%3A80&amp;tr=udp%3A%2F%2Fopen.demonii.com%3A1337&amp;tr=udp%3A%2F%2Ftracker.coppersurfer.tk%3A6969&amp;tr=udp%3A%2F%2Fexodus.desync.com%3A6969","seeders":1,"leechers":0,"uploader":"Fastbet99","files":-1,"time":1375081567,"description":"Magic Magic (2013)\n\nIMDB Info\t\t\t\t : http://www.imdb.com/title/tt1929308/\n\nSource\t\t\t\t\t : DvDRip-FooKaS (Thanks)\nComplete name                            : Magic.Magic.2013.480p.DVDRip.X264-Fastbet99.mp4\nFormat                                   : MPEG-4\nFormat profile                           : Base Media\nCodec ID                                 : isom\nFile size                                : 814 MiB\nDuration                                 : 1h 38mn\nOverall bit rate mode                    : Variable\nOverall bit rate                         : 1 161 Kbps\n\n\nVideo\nID                                       : 1\nFormat                                   : AVC\nFormat/Info                              : Advanced Video Codec\nFormat profile                           : &lt;a class=&quot;__cf_email__&quot; href=&quot;/cdn-cgi/l/email-protection&quot; data-cfemail=&quot;4a02232d220a067e647b&quot;&gt;[email&amp;#160;protected]&lt;/a&gt;&lt;script cf-hash='f9e31' type=&quot;text/javascript&quot;&gt;\n/* &lt;![CDATA[ */!function(){try{var t=&quot;currentScript&quot;in document?document.currentScript:function(){for(var t=document.getElementsByTagName(&quot;script&quot;),e=t.length;e--;)if(t[e].getAttribute(&quot;cf-hash&quot;))return t[e]}();if(t&amp;&amp;t.previousSibling){var e,r,n,i,c=t.previousSibling,a=c.getAttribute(&quot;data-cfemail&quot;);if(a){for(e=&quot;&quot;,r=parseInt(a.substr(0,2),16),n=2;a.length-n;n+=2)i=parseInt(a.substr(n,2),16)^r,e+=String.fromCharCode(i);e=document.createTextNode(e),c.parentNode.replaceChild(e,c)}}}catch(u){}}();/* ]]&gt; */&lt;/script&gt;\nFormat settings, CABAC                   : Yes\nFormat settings, ReFrames                : 4 frames\nCodec ID                                 : avc1\nCodec ID/Info                            : Advanced Video Coding\nDuration                                 : 1h 38mn\nBit rate                                 : 1 042 Kbps\nMaximum bit rate                         : 11.2 Mbps\nWidth                                    : 720 pixels\nHeight                                   : 304 pixels\nDisplay aspect ratio                     : 2.35:1\nFrame rate mode                          : Constant\nFrame rate                               : 23.976 fps\nColor space                              : YUV\nChroma subsampling                       : 4:2:0\nBit depth                                : 8 bits\nScan type                                : Progressive\nBits/(Pixel*Frame)                       : 0.199\nStream size                              : 731 MiB (90%)\nWriting library                          : x264 core 133 r2334 a3ac64b\n\n\nAudio\nID                                       : 2\nFormat                                   : AAC\nFormat/Info                              : Advanced Audio Codec\nFormat profile                           : LC\nCodec ID                                 : 40\nDuration                                 : 1h 38mn\nBit rate mode                            : Variable\nBit rate                                 : 96.0 Kbps\nMaximum bit rate                         : 124 Kbps\nChannel(s)                               : 2 channels\nChannel positions                        : Front: L R\nSampling rate                            : 48.0 KHz\nCompression mode                         : Lossy\nStream size                              : 67.1 MiB (8%)\nLanguage                                 : English\nEncoder\t\t\t\t\t : Fastbet99\n\nText #1\nID                                       : 3\nFormat                                   : mp4s\nCodec ID                                 : E0\nDuration                                 : 1h 33mn\nBit rate mode                            : Variable\nBit rate                                 : 5 200 bps\nMaximum bit rate                         : 46.0 Kbps\nStream size                              : 3.48 MiB (0%)\nTitle                                    : English - (Caption/Normal Size Char)\nLanguage                                 : English\n\n\nText #2\nID                                       : 4\nFormat                                   : mp4s\nCodec ID                                 : E0\nDuration                                 : 1h 33mn\nBit rate mode                            : Variable\nBit rate                                 : 5 984 bps\nMaximum bit rate                         : 47.8 Kbps\nStream size                              : 4.00 MiB (0%)\nTitle                                    : English - (Closed Caption/Normal Size Char)\nLanguage                                 : English\n\n\nText #3\nID                                       : 5\nFormat                                   : mp4s\nCodec ID                                 : E0\nDuration                                 : 1h 37mn\nBit rate mode                            : Variable\nBit rate                                 : 4 344 bps\nMaximum bit rate                         : 40.2 Kbps\nStream size                              : 3.04 MiB (0%)\nTitle                                    : French - (Caption/Normal Size Char)\nLanguage                                 : French\n\n\nText #4\nID                                       : 6\nFormat                                   : mp4s\nCodec ID                                 : E0\nDuration                                 : 1h 33mn\nBit rate mode                            : Variable\nBit rate                                 : 4 096 bps\nMaximum bit rate                         : 44.6 Kbps\nStream size                              : 2.74 MiB (0%)\nTitle                                    : Spanish - (Caption/Normal Size Char)\nLanguage                                 : Spanish\n\nScreenshots\n &lt;a href=&quot;\nhttp://lookpic.com/O/i2/894/DpsroXPQ.jpeg&quot; rel=&quot;nofollow&quot; target=&quot;_NEW&quot;&gt;\nhttp://lookpic.com/O/i2/894/DpsroXPQ.jpeg&lt;/a&gt;\n\nStairway To heaven - Help People With Keep Seed As Long You Can\n","torrent":{"xt":"urn:btih:ba3d19c48e67f815dd18d438da8ebb0c9399c05d","amp;dn":"Magic.Magic.2013.480p.DVDRip.X264-Fastbet99","amp;tr":["udp%3A%2F%2Ftracker.openbittorrent.com%3A80","udp%3A%2F%2Fopen.demonii.com%3A1337","udp%3A%2F%2Ftracker.coppersurfer.tk%3A6969","udp%3A%2F%2Fexodus.desync.com%3A6969"],"infoHash":"ba3d19c48e67f815dd18d438da8ebb0c9399c05d","infoHashBuffer":{"type":"Buffer","data":[186,61,25,196,142,103,248,21,221,24,212,56,218,142,187,12,147,153,192,93]},"announce":[],"urlList":[]}}